<svg xmlns="http://www.w3.org/2000/svg" xmlns:xlink="http://www.w3.org/1999/xlink" viewBox="0,0,256,256" width="48px" height="48px" fill-rule="nonzero"><g fill-opacity="0" fill="#ffffff" fill-rule="nonzero" stroke="none" stroke-width="1" stroke-linecap="butt" stroke-linejoin="miter" stroke-miterlimit="10" stroke-dasharray="" stroke-dashoffset="0" font-family="none" font-weight="none" font-size="none" text-anchor="none" style="mix-blend-mode: normal"><path d="M0,256v-256h256v256z" id="bgRectangle"></path></g><g fill="#ffffff" fill-rule="nonzero" stroke="none" stroke-width="1" stroke-linecap="butt" stroke-linejoin="miter" stroke-miterlimit="10" stroke-dasharray="" stroke-dashoffset="0" font-family="none" font-weight="none" font-size="none" text-anchor="none" style="mix-blend-mode: normal"><g transform="scale(5.33333,5.33333)"><path d="M35.7,34.7c-7.7,0 -13.2,-8.9 -13.4,-9.3l-0.6,-1l0.6,-1c0.2,-0.5 5.7,-9.4 13.4,-9.4c5.7,0 10.3,4.6 10.3,10.3c0,5.7 -4.6,10.4 -10.3,10.4zM26.4,24.3c1.5,2 5.1,6.3 9.2,6.3c3.5,0 6.3,-2.8 6.3,-6.3c0,-3.5 -2.8,-6.3 -6.3,-6.3c-4.1,0 -7.7,4.3 -9.2,6.3z"></path><path d="M12.3,34.7c-5.7,0 -10.3,-4.7 -10.3,-10.4c0,-5.7 4.6,-10.3 10.3,-10.3c7.9,0 13.2,8.9 13.4,9.3l0.6,1l-0.6,1c-0.2,0.4 -5.7,9.4 -13.4,9.4zM12.3,18c-3.5,0 -6.3,2.8 -6.3,6.3c0,3.5 2.8,6.3 6.3,6.3c4.2,0 7.8,-4.3 9.3,-6.3c-1.4,-2 -5,-6.3 -9.3,-6.3z"></path><path d="M10,23h6v2h-6zM32,23h6v2h-6z"></path><path d="M34,21h2v6h-2z"></path></g></g></svg>