<!DOCTYPE svg PUBLIC "-//W3C//DTD SVG 1.1//EN" "http://www.w3.org/Graphics/SVG/1.1/DTD/svg11.dtd">
<!-- Uploaded to: SVG Repo, www.svgrepo.com, Transformed by: SVG Repo Mixer Tools -->
<svg fill="#000000" width="800px" height="800px" viewBox="0 0 32 32" version="1.1" xmlns="http://www.w3.org/2000/svg">
<g id="SVGRepo_bgCarrier" stroke-width="0"/>
<g id="SVGRepo_tracerCarrier" stroke-linecap="round" stroke-linejoin="round"/>
<g id="SVGRepo_iconCarrier"> <title>asana</title> <path d="M22.523 8.662c0 3.603-2.921 6.523-6.523 6.523s-6.523-2.921-6.523-6.523c0-3.603 2.921-6.523 6.523-6.523v0c0 0 0 0 0 0 3.603 0 6.523 2.92 6.523 6.523 0 0 0 0 0 0v0zM7.527 16.816c-3.603 0-6.523 2.921-6.523 6.523s2.921 6.523 6.523 6.523c3.603 0 6.523-2.921 6.523-6.523v0c-0.001-3.602-2.921-6.522-6.523-6.523h-0zM24.473 16.816c-3.603 0-6.523 2.921-6.523 6.523s2.921 6.523 6.523 6.523c3.603 0 6.523-2.921 6.523-6.523v0c0-0 0-0 0-0 0-3.603-2.92-6.523-6.523-6.523-0 0-0 0-0 0v0z"/> </g>
</svg>