<svg xmlns="http://www.w3.org/2000/svg" xmlns:xlink="http://www.w3.org/1999/xlink" viewBox="0,0,256,256" width="48px" height="48px" fill-rule="nonzero"><g fill-opacity="0" fill="#ffffff" fill-rule="nonzero" stroke="none" stroke-width="1" stroke-linecap="butt" stroke-linejoin="miter" stroke-miterlimit="10" stroke-dasharray="" stroke-dashoffset="0" font-family="none" font-weight="none" font-size="none" text-anchor="none" style="mix-blend-mode: normal"><path d="M0,256v-256h256v256z" id="bgRectangle"></path></g><g fill="#ffffff" fill-rule="nonzero" stroke="none" stroke-width="1" stroke-linecap="butt" stroke-linejoin="miter" stroke-miterlimit="10" stroke-dasharray="" stroke-dashoffset="0" font-family="none" font-weight="none" font-size="none" text-anchor="none" style="mix-blend-mode: normal"><g transform="scale(5.33333,5.33333)"><path d="M35,38c3.667,0.021 7,-4 7,-9c0,-4 -2,-8 -5,-9v-3c0,-5.635 -5.842,-11 -13,-11c-7.158,0 -13.135,5.387 -13.135,11.022v2.978c-2.865,1 -4.865,4 -4.865,9c0,5 3,9 7,9v-21c0,-4.774 4.68,-9 11,-9c6.32,0 11,4.226 11,9"></path><path d="M33,29l-3,-6l-3,7l-3,-10l-3,10l-3.143,-7l-2.857,6v2l2.857,-5l3.143,8l3,-8l3,8l3,-8l3,5z"></path><path d="M35,20c-0.567,0.007 -1.588,0.49 -2,1v16c0.436,0.384 1.45,0.902 2,1zM13,20v18c0.619,0.026 1.646,-0.47 2,-1v-16c-0.44,-0.395 -1.451,-0.921 -2,-1z"></path></g></g></svg>