<?xml version="1.0" encoding="UTF-8"?>
<svg xmlns="http://www.w3.org/2000/svg" xmlns:xlink="http://www.w3.org/1999/xlink" width="204.800003pt" height="131.199997pt" viewBox="0 0 204.800003 131.199997" version="1.1">
<g id="surface1">
<path style=" stroke:none;fill-rule:nonzero;fill:rgb(83%,83%,83%);fill-opacity:1;" d="M 204.800781 65.535156 C 204.800781 101.730469 174.234375 131.070312 136.535156 131.070312 C 98.832031 131.070312 68.265625 101.730469 68.265625 65.535156 C 68.265625 29.339844 98.832031 0 136.535156 0 C 174.234375 0 204.800781 29.339844 204.800781 65.535156 Z M 204.800781 65.535156 "/>
<path style=" stroke:none;fill-rule:nonzero;fill:rgb(46%,46%,46%);fill-opacity:1;" d="M 136.53125 65.535156 C 136.53125 101.730469 105.96875 131.070312 68.265625 131.070312 C 30.5625 131.070312 0 101.730469 0 65.535156 C 0 29.339844 30.5625 0 68.265625 0 C 105.96875 0 136.53125 29.339844 136.53125 65.535156 Z M 136.53125 65.535156 "/>
<path style=" stroke:none;fill-rule:nonzero;fill:rgb(56%,56%,56%);fill-opacity:1;" d="M 136.535156 65.535156 C 136.535156 101.730469 105.96875 131.070312 68.265625 131.070312 L 68.265625 65.535156 Z M 68.265625 65.535156 C 68.265625 29.339844 98.832031 0 136.535156 0 L 136.535156 65.535156 Z M 68.265625 65.535156 "/>
</g>
</svg>
