<svg xmlns="http://www.w3.org/2000/svg" xmlns:xlink="http://www.w3.org/1999/xlink" viewBox="0,0,256,256" width="50px" height="50px" fill-rule="nonzero"><g fill-opacity="0" fill="#ffffff" fill-rule="nonzero" stroke="none" stroke-width="1" stroke-linecap="butt" stroke-linejoin="miter" stroke-miterlimit="10" stroke-dasharray="" stroke-dashoffset="0" font-family="none" font-weight="none" font-size="none" text-anchor="none" style="mix-blend-mode: normal"><path d="M0,256v-256h256v256z" id="bgRectangle"></path></g><g fill="#000000" fill-rule="nonzero" stroke="none" stroke-width="1" stroke-linecap="butt" stroke-linejoin="miter" stroke-miterlimit="10" stroke-dasharray="" stroke-dashoffset="0" font-family="none" font-weight="none" font-size="none" text-anchor="none" style="mix-blend-mode: normal"><g transform="scale(5.12,5.12)"><path d="M25,2c-12.69071,0 -23,10.3093 -23,23c0,12.6907 10.30929,23 23,23c12.69071,0 23,-10.3093 23,-23c0,-12.6907 -10.30929,-23 -23,-23zM25,4c11.60983,0 21,9.39017 21,21c0,11.60983 -9.39017,21 -21,21c-11.60983,0 -21,-9.39017 -21,-21c0,-11.60982 9.39017,-21 21,-21zM25,8c-3.86,0 -7,2.96823 -7,6.61523c0,3.546 3.28442,7.56839 6.35742,10.15039c0.186,0.156 0.41358,0.23242 0.64258,0.23242c0.229,0 0.45758,-0.07737 0.64258,-0.23437c3.073,-2.582 6.35742,-6.60244 6.35742,-10.14844c0,-3.646 -3.141,-6.61423 -7,-6.61523zM15.42969,25.00781c-1.56597,0.04072 -3.0223,0.33941 -4.18555,1.00391c-1.489,0.85 -2.55672,2.25422 -3.01172,3.94922c-0.483,1.8 -0.20623,3.78245 0.75977,5.43945c1.338,2.296 3.72891,3.59766 6.12891,3.59766c1.093,0 2.1885,-0.26984 3.1875,-0.83984c3.106,-1.777 4.96778,-6.63866 5.67578,-10.59766c0.086,-0.479 -0.18553,-0.95219 -0.64453,-1.11719c-2.3825,-0.85625 -5.30021,-1.50342 -7.91016,-1.43555zM34.57227,25.00781c-2.60974,-0.06787 -5.52703,0.5793 -7.91016,1.43555c-0.459,0.165 -0.73248,0.63819 -0.64648,1.11719c0.707,3.959 2.56978,8.82266 5.67578,10.59766c0.998,0.57 2.0935,0.83984 3.1875,0.83984c2.399,0 4.78986,-1.30066 6.13086,-3.59766c0.966,-1.657 1.24177,-3.63845 0.75977,-5.43945c-0.454,-1.696 -1.52467,-3.09822 -3.01367,-3.94922c-1.16325,-0.6645 -2.61775,-0.96318 -4.18359,-1.00391z"></path></g></g></svg>