<!DOCTYPE svg PUBLIC "-//W3C//DTD SVG 1.1//EN" "http://www.w3.org/Graphics/SVG/1.1/DTD/svg11.dtd">
<!-- Uploaded to: SVG Repo, www.svgrepo.com, Transformed by: SVG Repo Mixer Tools -->
<svg width="800px" height="800px" viewBox="0 0 32 32" id="Camada_1" version="1.1" xml:space="preserve" xmlns="http://www.w3.org/2000/svg" xmlns:xlink="http://www.w3.org/1999/xlink" fill="#000000">
<g id="SVGRepo_bgCarrier" stroke-width="0"/>
<g id="SVGRepo_tracerCarrier" stroke-linecap="round" stroke-linejoin="round"/>
<g id="SVGRepo_iconCarrier"> <style type="text/css"> .st0{fill:#ffffff;} .st1{fill-rule:evenodd;clip-rule:evenodd;fill:#ffffff;} </style> <g> <path class="st0" d="M17.3,24.5c-4.7,0-7.7-1.1-9.6-2.6c0.4-0.1,0.8-0.3,1.2-0.6c0.8-0.8,1-1.9,0.9-2.9c0-0.2-0.1-0.4-0.1-0.6 c0.2,0,0.4,0.1,0.6,0.1c0.9,0,1.7-0.4,2.3-1c0.6,1.1,1.8,1.9,3.2,1.9c1.7,0,3.2-1.2,3.5-2.9c0-0.2,0.1-0.5,0.1-0.7 c0-0.4-0.1-0.8-0.2-1.2c-0.5-1.4-1.8-2.4-3.4-2.4c-0.9,0-1.8,0.3-2.4,0.9c-0.2,0.2-0.4,0.4-0.6,0.7c-0.2-0.2-0.4-0.5-0.6-0.6 c-0.5-0.4-1.2-0.7-1.9-0.7c-1.5,0-2.8,1.1-3,2.6c-0.3-0.2-0.5-0.4-0.8-0.5c0.2-0.8,0.7-1.6,1.3-2.1V8.1c0-0.3,0.3-0.4,0.4-0.1 l0,0.1c0.4,0.9,0.9,2.1,2,3c0.9,0,1.8,0.3,2.4,0.9c0.8-0.7,1.9-1.2,3-1.2c1.2,0,2.3,0.5,3.1,1.2c3.8-1.1,5.8-3.6,6.8-5.6 c0.1-0.3,0.7-0.2,0.7,0.1c0.6,5.9,0.3,12-2.5,15.4c-1-0.7-2-1.2-2.7-1.6c-0.1,0-0.1-0.1-0.2-0.1c0-0.1,0-0.2,0-0.2l0,0 c-0.2-0.6-0.7-1.2-1.4-1.4l0,0c-0.2-0.1-0.5,0-0.5,0.3c-0.1,0.2,0,0.5,0.3,0.5l0,0c0,0,0.1,0,0.1,0c-1.7,1.1-3.7,1.6-5.8,1.5 l-0.5,0c-0.2,0-0.4,0.2-0.5,0.4c0,0.2,0.2,0.4,0.4,0.5l0.5,0c1.8,0.1,3.7-0.2,5.3-1c0,0,0,0,0,0c0.1,0.1,0.2,0.3,0.3,0.4 c0.2,0.2,0.5,0.5,0.9,0.8c0.5,0.5,1.2,1,2,1.6C20.7,24.1,19.2,24.5,17.3,24.5L17.3,24.5z"/> <path class="st0" d="M22.5,23c-1.2-0.9-2.2-1.7-2.8-2.2c-0.1-0.1-0.1-0.1-0.2-0.2c-0.1-0.2-0.2-0.3-0.3-0.4c0-0.1,0-0.1,0-0.1 c0,0,0.1-0.1,0.2,0c0.1,0,0.2,0.1,0.3,0.1c0.1,0,0.1,0.1,0.2,0.1c0.7,0.3,2,1,3.3,1.9c0.2,0.1,0.4,0.3,0.6,0.4c1.1,0.7,2,1.5,2.7,2 c1.2-1.3,2.7,2.2,2.7,2.2s-3.8,0.4-3.1-1.4c-0.8-0.4-1.8-1.1-2.9-1.8C23,23.4,22.7,23.2,22.5,23L22.5,23z"/> <path class="st1" d="M8.5,20.4c-0.1,0.1-0.2,0.2-0.3,0.3c-1.1,1-3.2,0.5-4.7-1.2c-1.5-1.7-1.9-3.8-0.8-4.8C3.6,14,5,14.1,6.3,14.9 c0.3,0.2,0.7,0.5,1,0.8c0.1,0.1,0.2,0.2,0.3,0.3c0.4,0.5,0.8,1,1,1.5c0.3,0.7,0.4,1.4,0.4,2C8.9,19.8,8.8,20.1,8.5,20.4L8.5,20.4z M5.2,16.2c0,0.8-0.5,1.4-1.2,1.4S2.8,17,2.8,16.2c0-0.8,0.5-1.4,1.2-1.4S5.2,15.4,5.2,16.2z"/> <path class="st0" d="M10.9,16.8c1,0,1.7-0.8,1.7-1.7c0-1-0.8-1.7-1.7-1.7c-0.1,0-0.3,0-0.4,0c0.4,0.1,0.7,0.5,0.7,1 c0,0.6-0.5,1-1,1c-0.4,0-0.8-0.3-1-0.7c0,0.1,0,0.3,0,0.4C9.2,16,10,16.8,10.9,16.8z"/> <path class="st0" d="M16.4,17.6c1.1,0,2-0.9,2-2c0-1.1-0.9-2-2-2c-0.1,0-0.2,0-0.3,0c0.5,0.1,0.9,0.6,0.9,1.1 c0,0.6-0.5,1.2-1.2,1.2c-0.6,0-1.2-0.5-1.2-1.2c0-0.1,0-0.1,0-0.2c-0.2,0.3-0.3,0.7-0.3,1.1C14.4,16.7,15.3,17.6,16.4,17.6 L16.4,17.6z"/> </g> </g>
</svg>