<svg xmlns="http://www.w3.org/2000/svg" xmlns:xlink="http://www.w3.org/1999/xlink" viewBox="0,0,256,256" width="50px" height="50px" fill-rule="nonzero"><g fill-opacity="0" fill="#ffffff" fill-rule="nonzero" stroke="none" stroke-width="1" stroke-linecap="butt" stroke-linejoin="miter" stroke-miterlimit="10" stroke-dasharray="" stroke-dashoffset="0" font-family="none" font-weight="none" font-size="none" text-anchor="none" style="mix-blend-mode: normal"><path d="M0,256v-256h256v256z" id="bgRectangle"></path></g><g fill="#ffffff" fill-rule="nonzero" stroke="none" stroke-width="1" stroke-linecap="butt" stroke-linejoin="miter" stroke-miterlimit="10" stroke-dasharray="" stroke-dashoffset="0" font-family="none" font-weight="none" font-size="none" text-anchor="none" style="mix-blend-mode: normal"><g transform="scale(5.12,5.12)"><path d="M41.14063,6.04688c-0.24219,-0.01953 -0.48437,0.01563 -0.65625,0.10156c-0.34766,0.17578 -0.51562,0.39453 -0.68359,0.63281c-0.33594,0.47656 -0.62891,1.11328 -1.00781,2.08594c-1.58203,4.05469 -6.26953,7.03125 -11.04297,8.01562c-0.95703,-0.55859 -2.06641,-0.88281 -3.25,-0.88281c-1.57031,0 -3.01172,0.5625 -4.13672,1.49609c-4.21484,-0.34375 -7.53125,-5.05078 -7.53125,-5.05078l-1.83203,-2.75v9.66016c-0.40625,0.57422 -0.70312,1.23047 -0.86328,1.9375c-0.55469,-0.38281 -1.12891,-0.70703 -1.72266,-0.92187c-0.75,-0.27344 -1.53516,-0.40625 -2.29688,-0.35937c-0.76562,0.04688 -1.5,0.26953 -2.15625,0.70313c-1.30469,0.87109 -1.9375,2.38281 -1.96094,3.95703c-0.02344,1.57422 0.52344,3.26953 1.59375,4.79297c1.07422,1.52344 2.49219,2.62109 3.99219,3.16406c0.67578,0.24609 1.37891,0.36719 2.06641,0.35938c1.36328,1.0625 3.49219,2.46875 5.625,3.40234c4.50391,1.96875 8.91016,2.91016 12.91406,2.52734c2.50391,-0.24219 4.84766,-1.01953 6.91016,-2.37109c0.32422,0.17188 0.64844,0.33984 0.97266,0.48438c2.64453,1.21094 5.10547,2.01563 6.95313,2.37109c-0.03125,0.55078 0.02734,1.14063 0.21094,1.74219c0.48047,1.55859 1.94141,2.34766 3.15625,2.92969c1.21875,0.58203 2.33984,0.89063 2.33984,0.89063l1.26563,0.34766v-1.3125c0,0 0.00391,-1.30078 -0.12109,-2.75c-0.0625,-0.72656 -0.15234,-1.49219 -0.30469,-2.18359c-0.15234,-0.69141 -0.28516,-1.30859 -0.80469,-1.86719c-0.61719,-0.67187 -1.39453,-1.04687 -2.17187,-1.14062c-0.77734,-0.09766 -1.55078,0.08594 -2.16016,0.53125c-0.04297,0.02734 -0.07422,0.06641 -0.10937,0.09766c-1.34766,-1.05859 -3.35937,-2.25781 -5.70703,-3.37891c2.66406,-3.39453 3.71094,-8.5625 4.14063,-13.31641c0.43359,-4.83594 0.1875,-9.19922 -0.03125,-10.89062c-0.07031,-0.51172 -0.13672,-1.01953 -0.23828,-1.47656c-0.10156,-0.45703 -0.07422,-0.88672 -0.71094,-1.36719c-0.16016,-0.12109 -0.39844,-0.19141 -0.64062,-0.21094zM40.75,9.39844c0.18359,1.44141 0.4375,5.77734 0.01953,10.41406c-0.42187,4.65625 -1.57031,9.64063 -3.83594,12.41406c-0.06641,0.07813 -0.13672,0.14453 -0.19922,0.22266c-0.95703,-0.40234 -1.88281,-0.75391 -2.75,-1.04687c0.17578,-1.96094 -2.98437,-3.40234 -2.98437,-3.40234c0,0 0.86328,1.19141 0.86328,2.34375c0,2.3125 -11.86328,1.65625 -11.86328,1.65625c0,0 6.66016,2.44531 10.78906,1.90625c0.6875,0.47656 1.46875,0.99609 2.30859,1.51172c-1.54297,0.83203 -3.24609,1.32813 -5.09766,1.50391c-3.55469,0.34375 -7.64453,-0.49219 -11.92187,-2.36328c-1.375,-0.60156 -2.83594,-1.48828 -4.01562,-2.29297c1.28906,-0.875 1.91406,-2.375 1.9375,-3.9375c0.00391,-0.18359 -0.00391,-0.36719 -0.01562,-0.55078c0.48438,0.13672 0.98828,0.22266 1.51563,0.22266c1.48828,0 2.84375,-0.60156 3.83984,-1.57031c1.1875,1.55859 3.05859,2.57031 5.16016,2.57031c3.57813,0 6.5,-2.92187 6.5,-6.5c0,-1.50391 -0.52344,-2.88672 -1.38672,-3.99219c4.78516,-1.33984 9.28906,-4.41016 11.04297,-8.91406c0.03906,-0.10547 0.05078,-0.09766 0.09375,-0.19531zM13,15.64063c0.42969,0.47656 0.92969,0.97656 1.49609,1.45313c-0.53125,0.10156 -1.03125,0.27734 -1.49609,0.51563zM24.5,18c2.49609,0 4.5,2.00391 4.5,4.5c0,0.28125 -0.03125,0.55469 -0.08203,0.82422c-0.30859,-1.33203 -1.49609,-2.32422 -2.91797,-2.32422c-0.08594,0 -0.16406,0.01953 -0.25,0.02734c0.71094,0.11719 1.25,0.73047 1.25,1.47266c0,0.82813 -0.67187,1.5 -1.5,1.5c-0.82812,0 -1.5,-0.67187 -1.5,-1.5c0,-0.40625 0.16406,-0.77344 0.42578,-1.04297c-0.85156,0.52734 -1.42578,1.46484 -1.42578,2.54297c0,1.42188 0.99219,2.60938 2.32422,2.91797c-0.26953,0.05078 -0.54297,0.08203 -0.82422,0.08203c-2.49609,0 -4.5,-2.00391 -4.5,-4.5c0,-2.49609 2.00391,-4.5 4.5,-4.5zM15.5,19c1.17578,0 2.20313,0.57422 2.83984,1.45313c-0.12109,0.35938 -0.21094,0.73438 -0.26562,1.12109c-0.42969,-0.35547 -0.97266,-0.57422 -1.57422,-0.57422c-0.07031,0 -0.13672,0.01563 -0.20703,0.01953c0.58984,0.10156 1.03906,0.61328 1.03906,1.23047c0,0.69141 -0.55859,1.25 -1.25,1.25c-0.6875,0 -1.25,-0.55859 -1.25,-1.25c0,-0.33984 0.13672,-0.64453 0.35547,-0.87109c-0.71094,0.44141 -1.1875,1.22266 -1.1875,2.12109c0,1.22266 0.87891,2.23828 2.04297,2.45313c-0.17969,0.02734 -0.35937,0.04688 -0.54297,0.04688c-0.76562,0 -1.46484,-0.24219 -2.04297,-0.65625l-0.01562,-0.01172l-0.00781,-0.00781h-0.00391c-0.01562,-0.01172 -0.03125,-0.02734 -0.05469,-0.04297c-0.01562,-0.01172 -0.01953,-0.01172 -0.03516,-0.02344c-0.25,-0.58594 -0.54297,-1.16797 -0.93359,-1.72266c-0.10547,-0.14844 -0.22656,-0.26953 -0.33594,-0.41016c-0.03516,-0.20312 -0.07031,-0.41016 -0.07031,-0.625c0,-1.94531 1.55469,-3.5 3.5,-3.5zM6.25781,22c0.44922,-0.02344 0.94531,0.05469 1.47656,0.25c1.05859,0.38281 2.18359,1.22656 3.03516,2.4375c0.85156,1.20703 1.24609,2.52734 1.23047,3.60938c-0.01562,1.08594 -0.39844,1.875 -1.07422,2.32422c-0.67187,0.44922 -1.60156,0.51563 -2.66016,0.12891c-1.05859,-0.38281 -2.18359,-1.22656 -3.03516,-2.4375c-0.85156,-1.20703 -1.24609,-2.52734 -1.23047,-3.60937c0,-0.01953 0.00391,-0.03516 0.00781,-0.05078c0.0625,1.31641 0.9375,2.34766 1.99219,2.34766c1.10547,0 2,-1.12109 2,-2.5c0,-1.28516 -0.77734,-2.35937 -1.79687,-2.48828c0.01953,0 0.03516,-0.00781 0.05469,-0.01172zM46.36719,37.97266c0.27734,0.03516 0.58594,0.20703 0.9375,0.58594c-0.03125,-0.03125 0.19531,0.37891 0.31641,0.92969c0.12109,0.55469 0.20703,1.25781 0.26563,1.92969c0.05078,0.58203 0.03125,0.66406 0.05078,1.11328c-0.30078,-0.11719 -0.32812,-0.09375 -0.67578,-0.26172c-1.03516,-0.49219 -1.97656,-1.27734 -2.10937,-1.71094c-0.39062,-1.25391 0.00781,-2.01953 0.46094,-2.35156c0.22656,-0.16406 0.47656,-0.26562 0.75391,-0.23437z"></path></g></g></svg>