<svg xmlns="http://www.w3.org/2000/svg" xmlns:xlink="http://www.w3.org/1999/xlink" viewBox="0,0,256,256" width="50px" height="50px" fill-rule="nonzero"><g fill-opacity="0" fill="#ffffff" fill-rule="nonzero" stroke="none" stroke-width="1" stroke-linecap="butt" stroke-linejoin="miter" stroke-miterlimit="10" stroke-dasharray="" stroke-dashoffset="0" font-family="none" font-weight="none" font-size="none" text-anchor="none" style="mix-blend-mode: normal"><path d="M0,256v-256h256v256z" id="bgRectangle"></path></g><g fill="#000000" fill-rule="nonzero" stroke="none" stroke-width="1" stroke-linecap="butt" stroke-linejoin="miter" stroke-miterlimit="10" stroke-dasharray="" stroke-dashoffset="0" font-family="none" font-weight="none" font-size="none" text-anchor="none" style="mix-blend-mode: normal"><g transform="scale(5.12,5.12)"><path d="M41.19141,6.01953c-1.13672,-0.13672 -1.76172,1.20703 -2.40234,2.84766c-1.69141,4.34375 -6.66016,7.11328 -11.01953,8.02344c-0.96094,-0.5625 -2.07422,-0.89062 -3.26953,-0.89062c-1.57422,0 -3.01953,0.5625 -4.14453,1.49609c-4.30469,-0.33984 -7.49219,-5.00391 -7.52734,-5.05469l-1.82812,-2.73047v9.63672c-0.40234,0.57031 -0.68359,1.22656 -0.84375,1.92969c-2.05078,-1.43359 -4.4375,-1.73047 -6.19531,-0.55859c-0.97656,0.64844 -1.62109,1.66797 -1.85937,2.94141c-0.34766,1.84766 0.19922,3.96094 1.49219,5.80469c1.59375,2.26172 3.89063,3.54688 5.96875,3.54688c0.89063,0 1.73828,-0.23828 2.47656,-0.73047c0.98047,-0.64844 1.625,-1.66797 1.86328,-2.94141c0.09375,-0.50391 0.11719,-1.03125 0.08203,-1.5625c0.48828,0.14063 0.99609,0.22266 1.51563,0.22266c0.16406,0 0.32422,-0.01562 0.48828,-0.03125c0.01953,0.58984 -0.01562,1.17188 -0.12109,1.73438c-0.33984,1.82031 -1.28125,3.28906 -2.72266,4.24609c-0.38281,0.25781 -0.80078,0.45703 -1.23437,0.61719c1.07031,0.67578 2.24609,1.33203 3.37109,1.82422c4.02344,1.76172 7.77734,2.63672 11.15625,2.63672c2.84375,0 5.41016,-0.63672 7.65625,-1.875c0.52344,0.28516 1.04688,0.55469 1.5625,0.78906c2.72266,1.24219 5.41797,2.14453 7.42188,2.50781c0.03906,0.22656 0.08594,0.45703 0.16016,0.69531c0.73828,2.39453 4.70703,3.60156 5.49609,3.82031l1.26563,0.34766v-1.3125c0.00391,-1.64062 -0.11328,-5.59375 -1.23047,-6.80078c-0.99609,-1.07812 -2.32812,-1.45312 -3.52344,-1.03125c-1.41406,-1.18359 -3.54687,-2.5 -6.03125,-3.69922c4.48047,-6.86328 3.92188,-20.25 3.51563,-23.36719c-0.21094,-1.57813 -0.39062,-2.94141 -1.53906,-3.08203zM24.5,18c2.48047,0 4.5,2.01953 4.5,4.5c0,0.28125 -0.03516,0.55469 -0.08203,0.82422c-0.30859,-1.33203 -1.49609,-2.32422 -2.91797,-2.32422c-0.08594,0 -0.16406,0.01953 -0.25,0.02734c0.71094,0.11719 1.25,0.73047 1.25,1.47266c0,0.82813 -0.67187,1.5 -1.5,1.5c-0.82812,0 -1.5,-0.67187 -1.5,-1.5c0,-0.40625 0.16406,-0.77344 0.42578,-1.04297c-0.85156,0.52734 -1.42578,1.46484 -1.42578,2.54297c0,1.42188 0.99219,2.60938 2.32422,2.91797c-0.26953,0.04688 -0.54297,0.08203 -0.82422,0.08203c-2.48047,0 -4.5,-2.01953 -4.5,-4.5c0,-2.48047 2.01953,-4.5 4.5,-4.5zM15.5,19c1.13672,0 2.19141,0.55469 2.84375,1.46484c-0.12109,0.35938 -0.20312,0.73047 -0.26562,1.11328c-0.42969,-0.35547 -0.97656,-0.57812 -1.57812,-0.57812c-0.07031,0 -0.13672,0.01563 -0.20703,0.01953c0.58984,0.10156 1.03906,0.61328 1.03906,1.23047c0,0.69141 -0.55859,1.25 -1.25,1.25c-0.6875,0 -1.25,-0.55859 -1.25,-1.25c0,-0.33984 0.13672,-0.64453 0.35547,-0.87109c-0.71094,0.44141 -1.1875,1.22266 -1.1875,2.12109c0,1.21875 0.875,2.23438 2.03125,2.45313c-0.17578,0.02734 -0.35156,0.04688 -0.53125,0.04688c-0.73828,0 -1.44531,-0.22656 -2.04687,-0.66016l-0.08984,-0.0625c-0.25,-0.59766 -0.56641,-1.18359 -0.95703,-1.74219c-0.10937,-0.15234 -0.22656,-0.29687 -0.33984,-0.44141c-0.03516,-0.19531 -0.06641,-0.39453 -0.06641,-0.59375c0,-1.92969 1.57031,-3.5 3.5,-3.5zM6,22c1.10547,0 2,1.11719 2,2.5c0,1.38281 -0.89453,2.5 -2,2.5c-1.10547,0 -2,-1.11719 -2,-2.5c0,-1.38281 0.89453,-2.5 2,-2.5zM31,28c0,0 1.23438,0.5625 2.11719,1.46484c0.00391,0.00391 0.00781,0.00781 0.01563,0.01563c0.08594,0.08594 0.16797,0.17578 0.24219,0.26953c0.39844,0.48438 0.66797,1.04688 0.60938,1.66016l0.00391,0.00391c-0.00781,0.08594 -0.01953,0.17578 -0.03906,0.26172c-0.05859,0.22266 -0.16797,0.44922 -0.30859,0.68359c1.23047,0.40625 2.53516,0.91016 3.875,1.51563c2.46094,1.125 4.68359,2.42188 6.13281,3.55859c-0.19531,0.28906 -0.35156,0.62109 -0.46484,0.98828c-1.80859,-0.35156 -4.21484,-1.16797 -6.69531,-2.29687c-1.48437,-0.67969 -3.04687,-1.64062 -4.36719,-2.52734c-0.39844,0.15625 -0.84375,0.25781 -1.32422,0.32031c-4.12891,0.54297 -10.79687,-1.91797 -10.79687,-1.91797c0,0 11.86328,0.65625 11.86328,-1.65625c0,-1.15234 -0.86328,-2.34375 -0.86328,-2.34375z"></path></g></g></svg>