<svg xmlns="http://www.w3.org/2000/svg" xmlns:xlink="http://www.w3.org/1999/xlink" viewBox="0,0,256,256" width="48px" height="48px" fill-rule="nonzero"><g fill-opacity="0" fill="#ffffff" fill-rule="nonzero" stroke="none" stroke-width="1" stroke-linecap="butt" stroke-linejoin="miter" stroke-miterlimit="10" stroke-dasharray="" stroke-dashoffset="0" font-family="none" font-weight="none" font-size="none" text-anchor="none" style="mix-blend-mode: normal"><path d="M0,256v-256h256v256z" id="bgRectangle"></path></g><g fill="none" fill-rule="nonzero" stroke="none" stroke-width="1" stroke-linecap="butt" stroke-linejoin="miter" stroke-miterlimit="10" stroke-dasharray="" stroke-dashoffset="0" font-family="none" font-weight="none" font-size="none" text-anchor="none" style="mix-blend-mode: normal"><g transform="scale(5.33333,5.33333)"><path d="M44.265,20.931l-16.76,-17.429c-2.08,-2.003 -5.498,-2.003 -7.423,0l-16.174,16.825c-6.131,6.227 4.157,5.727 7.813,8.086c1.686,1.116 -4.968,2.559 -3.52,4.031c1.411,1.481 8.076,2.815 9.487,4.25c1.411,1.472 -2.826,3.039 -1.406,4.511c1.375,1.472 4.423,0.07 5.019,3.417c0.431,2.478 5.779,1.233 8.29,-0.879c1.567,-1.353 -2.74,-1.352 -1.329,-2.833c1.265,-1.298 2.474,-1.875 3.574,-2.231c1.97,-0.649 4.22,-0.504 5.054,-2.662c0.706,-1.792 -5.266,-3.194 -3.654,-4.346c3.848,-2.751 17.554,-4.12 11.029,-10.74zM25.717,32.904c-2.126,0.732 -11.867,-3.948 -9.31,-3.948c0.44,0.001 14.854,2.065 9.31,3.948zM38.667,37.98c-1.847,1.904 0.321,3.899 2.128,2.584c0.483,-0.363 -0.039,-2.131 -2.128,-2.584zM40.021,36.134c0,0.899 6.313,1.412 5.965,-0.214c-0.503,-2.739 -5.267,-2.525 -5.965,0.214z" fill="#ffffff"></path><path d="M9.552,41.421c1.477,1.555 3.711,-0.34 4.43,-2.527c-1.437,-2.284 -6.745,0.146 -4.43,2.527z" fill="#ffffff"></path><path d="M26.77,5.59l-4.48,7.59l-7.94,13.46c-1.55,-0.59 -3.21,-0.95 -4.76,-1.23c-0.6,-0.19 -1.21,-0.36 -1.82,-0.52c-1.14,-0.31 -3.21,-0.88 -3.74,-1.37c0.07,-0.21 0.34,-0.78 1.35,-1.81l7.68,-7.98l8.5,-8.84c0.55,-0.57 1.33,-0.89 2.21,-0.89c0.88,0 1.74,0.33 2.36,0.92z" fill="#ffffff"></path><path d="M33.07,12.13c-0.03,0.1 -0.08,0.18 -0.13,0.24l-3.05,-2.51l-0.6,3.69l-2.51,-1.37l-4.09,2.62l-0.4,-1.62l-0.95,-3.89l-2.18,4.79l-5.45,-0.04c-0.34,0 -0.55,-0.12 -0.65,-0.31l8.5,-8.84c0.55,-0.57 1.33,-0.89 2.21,-0.89c0.88,0 1.74,0.33 2.36,0.92l0.64,0.67z" fill-opacity="0" fill="#ffffff"></path></g></g></svg>