<svg xmlns="http://www.w3.org/2000/svg" xmlns:xlink="http://www.w3.org/1999/xlink" viewBox="0,0,256,256" width="48px" height="48px" fill-rule="nonzero"><g fill-opacity="0" fill="#ffffff" fill-rule="nonzero" stroke="none" stroke-width="1" stroke-linecap="butt" stroke-linejoin="miter" stroke-miterlimit="10" stroke-dasharray="" stroke-dashoffset="0" font-family="none" font-weight="none" font-size="none" text-anchor="none" style="mix-blend-mode: normal"><path d="M0,256v-256h256v256z" id="bgRectangle"></path></g><g fill="none" fill-rule="nonzero" stroke="none" stroke-width="1" stroke-linecap="butt" stroke-linejoin="miter" stroke-miterlimit="10" stroke-dasharray="" stroke-dashoffset="0" font-family="none" font-weight="none" font-size="none" text-anchor="none" style="mix-blend-mode: normal"><g transform="scale(5.33333,5.33333)"><path d="M39.422,42h-30.844c-1.424,0 -2.578,-1.154 -2.578,-2.578v-30.844c0,-1.424 1.154,-2.578 2.578,-2.578h30.844c1.424,0 2.578,1.154 2.578,2.578v30.844c0,1.424 -1.154,2.578 -2.578,2.578z" fill="#000000"></path><path d="M24,12l-14,8v10.64v3.36v1.919l4.5,2.639l4.5,-2.639v-5.279l-4,-2.347v-5.572l9,-5.279l9,5.279v5.572l-4,2.347v5.279l4.5,2.639l4.5,-2.639v-1.919v-3.36v-10.64z" fill="#000000"></path><path d="M24,10l-14,8v10.64v3.36v1.919l4.5,2.639l4.5,-2.639v-5.279l-4,-2.347v-5.572l9,-5.279l9,5.279v5.572l-4,2.347v5.279l4.5,2.639l4.5,-2.639v-1.919v-3.36v-10.64z" fill="#ffffff"></path></g></g></svg>