<svg xmlns="http://www.w3.org/2000/svg" xmlns:xlink="http://www.w3.org/1999/xlink" viewBox="0,0,256,256" width="50px" height="50px" fill-rule="nonzero"><g fill-opacity="0" fill="#ffffff" fill-rule="nonzero" stroke="none" stroke-width="1" stroke-linecap="butt" stroke-linejoin="miter" stroke-miterlimit="10" stroke-dasharray="" stroke-dashoffset="0" font-family="none" font-weight="none" font-size="none" text-anchor="none" style="mix-blend-mode: normal"><path d="M0,256v-256h256v256z" id="bgRectangle"></path></g><g fill="#ffffff" fill-rule="nonzero" stroke="none" stroke-width="1" stroke-linecap="butt" stroke-linejoin="miter" stroke-miterlimit="10" stroke-dasharray="" stroke-dashoffset="0" font-family="none" font-weight="none" font-size="none" text-anchor="none" style="mix-blend-mode: normal"><g transform="scale(5.12,5.12)"><path d="M42.422,4h-34.844c-1.973,0 -3.578,1.605 -3.578,3.578v34.844c0,1.973 1.605,3.578 3.578,3.578h34.844c1.973,0 3.578,-1.605 3.578,-3.578v-34.844c0,-1.973 -1.605,-3.578 -3.578,-3.578zM39,29.64v3.36v1.919l-4.5,2.64l-4.5,-2.64v-5.279l4,-2.346v-5.572l-9,-5.279l-9,5.279v5.572l4,2.346v5.279l-4.5,2.64l-4.5,-2.64v-1.919v-3.36v-10.64l14,-8l14,8z"></path></g></g></svg>