<svg xmlns="http://www.w3.org/2000/svg" xmlns:xlink="http://www.w3.org/1999/xlink" viewBox="0,0,256,256" width="48px" height="48px" fill-rule="nonzero"><g fill-opacity="0" fill="#ffffff" fill-rule="nonzero" stroke="none" stroke-width="1" stroke-linecap="butt" stroke-linejoin="miter" stroke-miterlimit="10" stroke-dasharray="" stroke-dashoffset="0" font-family="none" font-weight="none" font-size="none" text-anchor="none" style="mix-blend-mode: normal"><path d="M0,256v-256h256v256z" id="bgRectangle"></path></g><g fill="#000000" fill-rule="nonzero" stroke="none" stroke-width="1" stroke-linecap="butt" stroke-linejoin="miter" stroke-miterlimit="10" stroke-dasharray="" stroke-dashoffset="0" font-family="none" font-weight="none" font-size="none" text-anchor="none" style="mix-blend-mode: normal"><g transform="scale(5.33333,5.33333)"><path d="M21.196,12.276l-6.804,-3.434l-7.47,3.727l6.99,3.509z"></path><path d="M24.317,13.85l7.134,3.603l-7.402,3.716l-7,-3.515z"></path><path d="M33.846,8.893l7.33,3.676l-6.557,3.291l-7.149,-3.606z"></path><path d="M30.69,7.31l-6.599,-3.31l-6.527,3.258l6.8,3.429z"></path><path d="M25.532,35.725v9.005l7.993,-3.99l-0.007,-9.008z"></path><path d="M33.514,28.587l-0.009,-8.913l-7.973,3.963v8.917z"></path><path d="M43.111,26.918v9.039l-6.819,3.402l-0.005,-8.998z"></path><path d="M43.111,23.756v-8.858l-6.832,3.396l0.006,8.931z"></path><path d="M22.71,23.637l-5.384,-2.708v11.699c0,0 -6.586,-14.012 -7.195,-15.27c-0.079,-0.163 -0.401,-0.341 -0.484,-0.385c-1.187,-0.62 -4.647,-2.372 -4.647,-2.372v20.676l4.787,2.566v-10.812c0,0 6.515,12.52 6.582,12.657c0.067,0.137 0.718,1.455 1.418,1.919c0.929,0.618 4.919,3.016 4.919,3.016z"></path></g></g></svg>