<svg xmlns="http://www.w3.org/2000/svg" xmlns:xlink="http://www.w3.org/1999/xlink" viewBox="0,0,256,256" width="48px" height="48px" fill-rule="nonzero"><g fill-opacity="0" fill="#ffffff" fill-rule="nonzero" stroke="none" stroke-width="1" stroke-linecap="butt" stroke-linejoin="miter" stroke-miterlimit="10" stroke-dasharray="" stroke-dashoffset="0" font-family="none" font-weight="none" font-size="none" text-anchor="none" style="mix-blend-mode: normal"><path d="M0,256v-256h256v256z" id="bgRectangle"></path></g><g fill="none" fill-rule="nonzero" stroke="none" stroke-width="1" stroke-linecap="butt" stroke-linejoin="miter" stroke-miterlimit="10" stroke-dasharray="" stroke-dashoffset="0" font-family="none" font-weight="none" font-size="none" text-anchor="none" style="mix-blend-mode: normal"><g transform="scale(5.33333,5.33333)"><path d="M6,10c0,-2.2 1.8,-4 4,-4h28c2.2,0 4,1.8 4,4v28c0,2.2 -1.8,4 -4,4h-28c-2.2,0 -4,-1.8 -4,-4z" fill="#000000"></path><path d="M10,12.2c0,-1.2 1,-2.2 2.2,-2.2h7.6c1.2,0 2.2,1 2.2,2.2v21.6c0,1.2 -1,2.2 -2.2,2.2h-7.6c-1.2,0 -2.2,-1 -2.2,-2.2zM26,22.8c0,1.2 1,2.2 2.2,2.2h7.6c1.2,0 2.2,-1 2.2,-2.2v-10.6c0,-1.2 -1,-2.2 -2.2,-2.2h-7.6c-1.2,0 -2.2,1 -2.2,2.2z" fill="#ffffff"></path></g></g></svg>